<svg xmlns="http://www.w3.org/2000/svg" width="733.212" height="273.52" viewBox="0 0 193.996 72.369"><defs><clipPath id="a" clipPathUnits="userSpaceOnUse"><path d="M0 368.504h368.504V0H0Z"/></clipPath></defs><g clip-path="url(#a)" transform="matrix(.6307 0 0 -.6307 -11.603 152.392)"><path style="fill:#395cb3;fill-opacity:1;fill-rule:nonzero;stroke:none" d="M-24.123 0c-2.828 0-5.251-1.644-6.432-4.014h-16.082c-9.223 0-17.896 3.592-24.42 10.116-6.522 6.523-10.114 15.195-10.114 24.419v53.561c2.37 1.181 4.014 3.604 4.014 6.431a7.21 7.21 0 0 1-14.42 0c0-2.827 1.644-5.25 4.015-6.431V30.521c0-10.931 4.256-21.208 11.987-28.939 7.729-7.731 18.009-11.988 28.938-11.988h16.082c1.182-2.37 3.604-4.013 6.432-4.013a7.21 7.21 0 0 1 0 14.419" transform="translate(109.973 143.9)"/><path style="fill:#395cb3;fill-opacity:1;fill-rule:nonzero;stroke:none" d="M4.617-31.152a7.211 7.211 0 0 1 14.42 0c0 2.827-1.644 5.25-4.013 6.431v85.166c2.37 1.181 4.013 3.604 4.013 6.431a7.21 7.21 0 0 1-14.42 0c0-2.827 1.645-5.25 4.015-6.431V-24.72c-2.37-1.182-4.015-3.604-4.015-6.432" transform="translate(101.223 167.537)"/><path style="fill:#395cb3;fill-opacity:1;fill-rule:nonzero;stroke:none" d="M0 0c-1.999 2-4.875 2.55-7.386 1.709l-9.205 9.206c-1.198 1.198-3.321 1.198-4.519 0C-27.658 4.367-36.364.761-45.626.761c-19.115 0-34.669 15.552-34.669 34.668v25.226c0 19.116 15.554 34.669 34.669 34.669 19.116 0 34.67-15.553 34.67-34.669V35.429c0-.219-.029-.436-.033-.655-2.04-.762-3.724-2.413-4.398-4.66a7.21 7.21 0 0 1 13.813-4.14c.948 3.163-.401 6.443-3.058 8.13.015.443.069.882.069 1.325v25.226c0 22.641-18.422 41.061-41.063 41.061-22.641 0-41.062-18.42-41.062-41.061V35.429c0-22.64 18.421-41.06 41.062-41.06 9.897 0 19.258 3.477 26.69 9.852l7.031-7.031c-.841-2.511-.29-5.387 1.709-7.386A7.21 7.21 0 0 1 0 0" transform="translate(216.936 139.188)"/><path style="fill:#395cb3;fill-opacity:1;fill-rule:nonzero;stroke:none" d="M0 0h-.01c-4.619 0-4.835 4.777-4.836 4.826a3.053 3.053 0 0 1-3.048 3.057c-4.617 0-4.834 4.778-4.835 4.826 0 4.278 4.754 4.84 4.803 4.845h.003c4.297 0 4.859-4.754 4.864-4.802.002-1.712 1.369-3.08 3.049-3.08 4.268 0 4.829-4.755 4.834-4.803C4.826.218.049.002 0 0m31.523 0c-4.619 0-4.835 4.777-4.836 4.826a3.054 3.054 0 0 1-3.048 3.057 3.05 3.05 0 0 1-3.046-3.047C20.593.218 15.815.002 15.767 0c-4.629 0-4.845 4.777-4.847 4.826 0 4.278 4.756 4.84 4.804 4.845 1.713.001 3.079 1.369 3.079 3.048a3.05 3.05 0 0 1-3.046 3.047 3.05 3.05 0 0 1-3.047-3.047c0-4.618-4.778-4.834-4.826-4.836-4.629 0-4.845 4.778-4.847 4.826 0 4.278 4.755 4.84 4.804 4.845 1.713.002 3.079 1.368 3.079 3.048a3.05 3.05 0 0 1-3.047 3.047c-4.618 0-4.834 4.778-4.836 4.826A3.052 3.052 0 0 1-.01 31.533a3.05 3.05 0 0 1-3.047-3.048A3.051 3.051 0 0 1-.01 25.438c4.268 0 4.829-4.755 4.834-4.803C4.826 15.984.049 15.768 0 15.766c-4.629 0-4.845 4.777-4.846 4.826a3.053 3.053 0 0 1-3.048 3.057 3.05 3.05 0 0 1-3.046-3.047c0-4.618-4.778-4.834-4.826-4.836a3.052 3.052 0 0 1-3.056-3.047 3.05 3.05 0 0 1 3.046-3.047c4.268 0 4.829-4.755 4.835-4.803C-10.94.218-15.718.002-15.766 0a3.052 3.052 0 0 1-3.056-3.047c0-4.618-4.779-4.834-4.826-4.836-4.629 0-4.845 4.777-4.847 4.825 0 4.278 4.755 4.84 4.804 4.846 1.712.001 3.079 1.368 3.079 3.048a3.05 3.05 0 0 1-3.047 3.047c-4.618 0-4.834 4.778-4.836 4.826a3.052 3.052 0 0 1-3.047 3.057 3.05 3.05 0 0 1-3.047-3.047 3.05 3.05 0 0 1 3.047-3.047c4.268 0 4.829-4.755 4.835-4.803C-26.706.218-31.483.002-31.532 0c-4.629 0-4.845 4.777-4.846 4.826a3.053 3.053 0 0 1-3.048 3.057h-.842l.056.048c-3.618.467-4.023 4.21-4.059 4.662l-.002.034.01.083c.001 4.277 4.756 4.839 4.805 4.844 1.713.002 3.08 1.368 3.08 3.048a3.05 3.05 0 0 1-3.048 3.047 3.051 3.051 0 0 1-3.047-3.047c0-4.618-4.777-4.834-4.825-4.836a3.052 3.052 0 0 1-3.057-3.047 3.052 3.052 0 0 1 3.032-3.045l.731-.004-.043-.042c2.809-.371 3.747-2.979 4.031-4.169l.114.113.02-.716C-42.473.218-47.25.002-47.298 0a3.052 3.052 0 0 1-3.057-3.047 3.05 3.05 0 0 1 3.046-3.047 3.05 3.05 0 0 1 3.047 3.047c0 4.267 4.755 4.829 4.804 4.835h.003c4.297 0 4.858-4.754 4.864-4.803.002-1.712 1.368-3.079 3.049-3.079 4.268 0 4.829-4.755 4.835-4.803.001-4.651-4.776-4.867-4.825-4.869-4.629 0-4.845 4.777-4.846 4.826a3.053 3.053 0 0 1-3.048 3.057 3.051 3.051 0 0 1-3.047-3.047 3.051 3.051 0 0 1 3.047-3.047c4.268 0 4.829-4.755 4.835-4.804.002-1.712 1.368-3.079 3.049-3.079a3.05 3.05 0 0 1 3.047 3.047c0 4.267 4.755 4.829 4.804 4.834h.002c4.297 0 4.859-4.753 4.865-4.802.002-1.712 1.368-3.079 3.048-3.079a3.05 3.05 0 0 1 3.047 3.047c0 4.267 4.754 4.829 4.803 4.834 1.713.002 3.08 1.369 3.08 3.049a3.05 3.05 0 0 1-3.048 3.047 3.05 3.05 0 0 1-3.046-3.047c0-4.618-4.778-4.834-4.826-4.836-4.629 0-4.845 4.777-4.846 4.826 0 4.277 4.755 4.839 4.803 4.845 1.713.001 3.08 1.368 3.08 3.048 0 4.267 4.754 4.829 4.803 4.835h.003c4.297 0 4.859-4.754 4.864-4.803.002-1.712 1.369-3.079 3.049-3.079a3.05 3.05 0 0 1 3.047 3.047c0 4.267 4.755 4.829 4.804 4.835h.002c4.298 0 4.859-4.754 4.865-4.803.002-1.712 1.368-3.079 3.049-3.079 4.267 0 4.829-4.755 4.834-4.803.002-4.651-4.776-4.867-4.824-4.869a3.052 3.052 0 0 1-3.057-3.047 3.05 3.05 0 0 1 3.047-3.047 3.05 3.05 0 0 1 3.046 3.047c0 4.267 4.755 4.829 4.803 4.834 1.713.002 3.081 1.369 3.081 3.049a3.051 3.051 0 0 1-3.048 3.047c-4.618 0-4.834 4.777-4.836 4.825 0 4.278 4.755 4.84 4.803 4.846h.002c4.299 0 4.86-4.754 4.866-4.803.002-1.712 1.369-3.079 3.049-3.079a3.05 3.05 0 0 1 3.046 3.047A3.05 3.05 0 0 1 31.523 0" transform="translate(284.649 171.488)"/><path style="fill:#395cb3;fill-opacity:1;fill-rule:nonzero;stroke:none" d="M0 0c-4.629 0-4.845 4.777-4.846 4.826v.01c0 4.268 4.755 4.83 4.804 4.835h.002c4.298 0 4.859-4.754 4.865-4.802C4.826.218.049.002 0 0m63.056 0c-4.619 0-4.835 4.777-4.837 4.826a3.053 3.053 0 0 1-3.048 3.057c-4.617 0-4.834 4.778-4.836 4.826a3.052 3.052 0 0 1-3.046 3.057 3.05 3.05 0 0 1-3.047-3.047c0-4.618-4.778-4.834-4.826-4.836-4.629 0-4.845 4.778-4.847 4.826a3.052 3.052 0 0 1-3.047 3.057 3.05 3.05 0 0 1-3.046-3.047c0-4.618-4.778-4.834-4.827-4.836-4.628 0-4.844 4.778-4.846 4.826a3.052 3.052 0 0 1-3.047 3.057 3.05 3.05 0 0 1-3.046-3.047 3.05 3.05 0 0 1 3.046-3.047c4.268 0 4.829-4.755 4.835-4.803C20.592.218 15.814.002 15.767 0a3.052 3.052 0 0 1-3.057-3.047c0-4.619-4.778-4.834-4.826-4.836-4.629 0-4.845 4.777-4.847 4.825 0 4.278 4.755 4.84 4.804 4.846 1.712.001 3.079 1.368 3.079 3.048a3.05 3.05 0 0 1-3.047 3.047c-4.618 0-4.834 4.778-4.836 4.826A3.052 3.052 0 0 1-.01 15.766a3.05 3.05 0 0 1-3.047-3.047c0-4.618-4.777-4.834-4.826-4.836a3.053 3.053 0 0 1-3.057-3.047 3.05 3.05 0 0 1 3.046-3.047c4.268 0 4.83-4.755 4.835-4.804.002-4.651-4.775-4.866-4.824-4.868a3.053 3.053 0 0 1-3.057-3.047 3.05 3.05 0 0 1 3.046-3.047c4.268 0 4.83-4.755 4.835-4.804.002-1.712 1.369-3.079 3.049-3.079a3.05 3.05 0 0 1 3.047 3.047A3.05 3.05 0 0 1-.01-15.766c-4.619 0-4.835 4.777-4.836 4.826 0 4.277 4.755 4.839 4.804 4.845h.002c4.298 0 4.859-4.755 4.865-4.802.001-1.713 1.368-3.08 3.048-3.08 4.268 0 4.829-4.755 4.835-4.804.002-4.651-4.776-4.866-4.824-4.868a3.054 3.054 0 0 1-3.058-3.047 3.05 3.05 0 0 1 3.047-3.047 3.05 3.05 0 0 1 3.047 3.047c0 4.267 4.755 4.829 4.804 4.834 1.713.002 3.079 1.369 3.079 3.049a3.05 3.05 0 0 1-3.047 3.047c-4.618 0-4.835 4.777-4.836 4.826 0 4.277 4.755 4.839 4.804 4.845 1.713.001 3.079 1.368 3.079 3.048 0 4.267 4.755 4.829 4.803 4.835h.003c4.297 0 4.859-4.754 4.865-4.803.002-1.712 1.368-3.079 3.048-3.079a3.05 3.05 0 0 1 3.047 3.047A3.05 3.05 0 0 1 31.522 0c-4.619 0-4.834 4.777-4.835 4.826 0 4.278 4.754 4.84 4.803 4.845h.002c4.298 0 4.86-4.754 4.864-4.802.002-1.713 1.37-3.08 3.049-3.08 4.268 0 4.829-4.755 4.835-4.804.002-4.651-4.776-4.866-4.824-4.868a3.054 3.054 0 0 1-3.058-3.047 3.051 3.051 0 0 1 3.047-3.047 3.05 3.05 0 0 1 3.047 3.047c0 4.267 4.756 4.829 4.804 4.835h.003c4.298 0 4.859-4.755 4.864-4.802.002-4.652-4.775-4.867-4.824-4.869a3.052 3.052 0 0 1-3.057-3.047 3.05 3.05 0 0 1 3.047-3.047 3.05 3.05 0 0 1 3.046 3.047c0 4.267 4.755 4.829 4.804 4.834 1.713.002 3.08 1.369 3.08 3.049a3.05 3.05 0 0 1-3.048 3.047c-4.617 0-4.834 4.777-4.836 4.825A3.052 3.052 0 0 1 47.289 0c-4.619 0-4.835 4.777-4.837 4.826 0 4.278 4.756 4.84 4.804 4.845h.003c4.298 0 4.859-4.754 4.864-4.802.002-1.713 1.368-3.08 3.048-3.08 4.268 0 4.829-4.755 4.835-4.804.002-1.712 1.369-3.079 3.05-3.079a3.05 3.05 0 0 1 3.046 3.047A3.05 3.05 0 0 1 63.056 0" transform="translate(253.117 195.137)"/><path style="fill:#395cb3;fill-opacity:1;fill-rule:nonzero;stroke:none" d="M0 0c1.063 0 1.93.866 1.93 1.93A1.932 1.932 0 0 1 0 3.859 1.932 1.932 0 0 1-1.93 1.93C-1.93.866-1.064 0 0 0" transform="translate(316.173 198.044)"/><path style="fill:#395cb3;fill-opacity:1;fill-rule:nonzero;stroke:none" d="M0 0a1.933 1.933 0 0 1-1.93-1.929c0-1.065.867-1.93 1.93-1.93 1.064 0 1.93.865 1.93 1.93A1.932 1.932 0 0 1 0 0" transform="translate(308.288 146.721)"/><path style="fill:#395cb3;fill-opacity:1;fill-rule:nonzero;stroke:none" d="M0 0a1.933 1.933 0 0 1-1.93-1.929c0-1.065.867-1.93 1.93-1.93 1.064 0 1.93.865 1.93 1.93A1.932 1.932 0 0 1 0 0" transform="translate(245.223 146.721)"/><path style="fill:#395cb3;fill-opacity:1;fill-rule:nonzero;stroke:none" d="M0 0c1.064 0 1.93.866 1.93 1.93A1.932 1.932 0 0 1 0 3.859 1.932 1.932 0 0 1-1.93 1.93C-1.93.866-1.063 0 0 0" transform="translate(276.755 237.46)"/><path style="fill:#395cb3;fill-opacity:1;fill-rule:nonzero;stroke:none" d="M0 0c1.064 0 1.93.866 1.93 1.93A1.932 1.932 0 0 1 0 3.859 1.932 1.932 0 0 1-1.93 1.93C-1.93.866-1.064 0 0 0" transform="translate(268.873 229.576)"/><path style="fill:#395cb3;fill-opacity:1;fill-rule:nonzero;stroke:none" d="M0 0c1.064 0 1.93.866 1.93 1.93A1.932 1.932 0 0 1 0 3.859 1.932 1.932 0 0 1-1.93 1.93C-1.93.866-1.064 0 0 0" transform="translate(284.64 229.576)"/><path style="fill:#395cb3;fill-opacity:1;fill-rule:nonzero;stroke:none" d="M0 0c1.064 0 1.93.866 1.93 1.93A1.932 1.932 0 0 1 0 3.859 1.932 1.932 0 0 1-1.93 1.93C-1.93.866-1.063 0 0 0" transform="translate(260.99 221.693)"/><path style="fill:#395cb3;fill-opacity:1;fill-rule:nonzero;stroke:none" d="M0 0c4.269 0 4.829-4.756 4.835-4.804.001-1.712 1.368-3.079 3.048-3.079a3.051 3.051 0 0 1 3.048 3.047 3.051 3.051 0 0 1-3.048 3.047c-4.617 0-4.834 4.777-4.836 4.826 0 4.277 4.755 4.839 4.804 4.845 1.712.001 3.08 1.368 3.08 3.048a3.051 3.051 0 0 1-3.048 3.047 3.05 3.05 0 0 1-3.047-3.047c0-4.618-4.777-4.834-4.825-4.836a3.052 3.052 0 0 1-3.057-3.047A3.05 3.05 0 0 1 0 0" transform="translate(268.873 220.576)"/><path style="fill:#395cb3;fill-opacity:1;fill-rule:nonzero;stroke:none" d="M0 0a3.05 3.05 0 0 1 3.047-3.047A3.05 3.05 0 0 1 6.095 0a3.05 3.05 0 0 1-3.048 3.047A3.05 3.05 0 0 1 0 0" transform="translate(273.709 223.623)"/><path style="fill:#395cb3;fill-opacity:1;fill-rule:nonzero;stroke:none" d="m0 0 .023-.002V0l.169-.002h.584L.73-.046c3.393-.461 4.045-4.196 4.113-4.647l.006-.044-.011-.093a3.049 3.049 0 0 1 3.045-3.053 3.05 3.05 0 0 1 3.047 3.047 3.052 3.052 0 0 1-3.027 3.044l-.73.005.037.037c-3 .345-3.83 2.91-4.057 4.137l-.083-.084-.025.718A3.053 3.053 0 0 1 0 6.094a3.05 3.05 0 0 1-3.047-3.047A3.05 3.05 0 0 1 0 0" transform="translate(284.64 220.576)"/><path style="fill:#395cb3;fill-opacity:1;fill-rule:nonzero;stroke:none" d="M0 0c1.064 0 1.93.866 1.93 1.93A1.932 1.932 0 0 1 0 3.859 1.932 1.932 0 0 1-1.93 1.93C-1.93.866-1.063 0 0 0" transform="translate(292.522 221.693)"/><path style="fill:#395cb3;fill-opacity:1;fill-rule:nonzero;stroke:none" d="M0 0c1.064 0 1.93.866 1.93 1.93A1.932 1.932 0 0 1 0 3.859 1.932 1.932 0 0 1-1.93 1.93C-1.93.866-1.064 0 0 0" transform="translate(253.107 213.81)"/><path style="fill:#395cb3;fill-opacity:1;fill-rule:nonzero;stroke:none" d="M0 0a3.05 3.05 0 0 1 3.047 3.046A3.05 3.05 0 0 1 0 6.094a3.05 3.05 0 0 1-3.047-3.048A3.05 3.05 0 0 1 0 0" transform="translate(260.99 212.693)"/><path style="fill:#395cb3;fill-opacity:1;fill-rule:nonzero;stroke:none" d="M0 0c1.063 0 1.93.866 1.93 1.93A1.932 1.932 0 0 1 0 3.859 1.932 1.932 0 0 1-1.93 1.93C-1.93.866-1.064 0 0 0" transform="translate(300.406 213.81)"/><path style="fill:#395cb3;fill-opacity:1;fill-rule:nonzero;stroke:none" d="M0 0c1.064 0 1.93.866 1.93 1.93A1.932 1.932 0 0 1 0 3.859 1.932 1.932 0 0 1-1.93 1.93C-1.93.866-1.063 0 0 0" transform="translate(245.223 205.927)"/><path style="fill:#395cb3;fill-opacity:1;fill-rule:nonzero;stroke:none" d="M0 0c4.268 0 4.829-4.756 4.835-4.804C4.837-9.455.059-9.67.011-9.672a3.054 3.054 0 0 1-3.058-3.048A3.05 3.05 0 0 1 0-15.766a3.05 3.05 0 0 1 3.047 3.046c0 4.268 4.755 4.83 4.804 4.835 1.712.002 3.079 1.369 3.079 3.049a3.05 3.05 0 0 1-3.047 3.047c-4.618 0-4.835 4.777-4.836 4.826 0 4.277 4.755 4.839 4.804 4.845 1.712.001 3.079 1.368 3.079 3.048a3.05 3.05 0 0 1-3.047 3.047 3.05 3.05 0 0 1-3.046-3.047c0-4.618-4.778-4.834-4.826-4.836a3.053 3.053 0 0 1-3.058-3.047A3.05 3.05 0 0 1 0 0" transform="translate(260.99 204.81)"/><path style="fill:#395cb3;fill-opacity:1;fill-rule:nonzero;stroke:none" d="M0 0a3.05 3.05 0 0 1 3.047-3.047A3.05 3.05 0 0 1 6.095 0c0 4.268 4.755 4.83 4.803 4.835h.002c4.298 0 4.86-4.754 4.865-4.802.002-1.713 1.369-3.08 3.048-3.08A3.05 3.05 0 0 1 21.86 0a3.05 3.05 0 0 1-3.047 3.047c-4.618 0-4.834 4.777-4.835 4.826a3.053 3.053 0 0 1-3.047 3.057 3.05 3.05 0 0 1-3.047-3.047c0-4.618-4.778-4.834-4.826-4.836A3.053 3.053 0 0 1 0 0" transform="translate(273.709 207.857)"/><path style="fill:#395cb3;fill-opacity:1;fill-rule:nonzero;stroke:none" d="M0 0c1.064 0 1.93.866 1.93 1.93A1.932 1.932 0 0 1 0 3.859 1.932 1.932 0 0 1-1.93 1.93C-1.93.866-1.063 0 0 0" transform="translate(308.288 205.927)"/><path style="fill:#395cb3;fill-opacity:1;fill-rule:nonzero;stroke:none" d="M0 0c1.064 0 1.93.866 1.93 1.93A1.932 1.932 0 0 1 0 3.859 1.932 1.932 0 0 1-1.93 1.93C-1.93.866-1.064 0 0 0" transform="translate(237.34 198.044)"/><path style="fill:#395cb3;fill-opacity:1;fill-rule:nonzero;stroke:none" d="M0 0a3.05 3.05 0 0 1 3.047 3.046A3.05 3.05 0 0 1 0 6.094a3.05 3.05 0 0 1-3.047-3.048A3.05 3.05 0 0 1 0 0" transform="translate(237.34 189.044)"/><path style="fill:#395cb3;fill-opacity:1;fill-rule:nonzero;stroke:none" d="M0 0a3.05 3.05 0 0 1-3.047-3.047A3.05 3.05 0 0 1 0-6.094a3.05 3.05 0 0 1 3.047 3.047A3.05 3.05 0 0 1 0 0" transform="translate(253.107 203.02)"/><path style="fill:#395cb3;fill-opacity:1;fill-rule:nonzero;stroke:none" d="M0 0c-4.619 0-4.835 4.777-4.837 4.826a3.053 3.053 0 0 1-3.048 3.057c-4.617 0-4.834 4.778-4.836 4.826a3.053 3.053 0 0 1-3.046 3.058 3.05 3.05 0 0 1-3.046-3.048 3.05 3.05 0 0 1 3.046-3.047c4.268 0 4.829-4.755 4.834-4.803.002-1.713 1.369-3.079 3.048-3.079 4.269 0 4.829-4.756 4.835-4.804.002-1.713 1.369-3.08 3.05-3.08a3.05 3.05 0 0 1 3.046 3.047A3.05 3.05 0 0 1 0 0" transform="translate(316.173 187.254)"/><path style="fill:#395cb3;fill-opacity:1;fill-rule:nonzero;stroke:none" d="M0 0a3.05 3.05 0 0 1-3.047 3.047A3.05 3.05 0 0 1-6.094 0a3.05 3.05 0 0 1 3.047-3.047A3.05 3.05 0 0 1 0 0" transform="translate(240.387 176.324)"/><path style="fill:#395cb3;fill-opacity:1;fill-rule:nonzero;stroke:none" d="M0 0a3.05 3.05 0 0 1-3.048-3.047A3.05 3.05 0 0 1 0-6.094a3.05 3.05 0 0 1 3.046 3.047A3.05 3.05 0 0 1 0 0" transform="translate(316.173 179.371)"/><path style="fill:#395cb3;fill-opacity:1;fill-rule:nonzero;stroke:none" d="M0 0c-4.619 0-4.835 4.777-4.836 4.826a3.053 3.053 0 0 1-3.048 3.057 3.051 3.051 0 0 1-3.047-3.047 3.051 3.051 0 0 1 3.047-3.047c4.268 0 4.829-4.755 4.835-4.804C-3.047-4.727-1.681-6.094 0-6.094a3.05 3.05 0 0 1 3.047 3.047A3.05 3.05 0 0 1 0 0" transform="translate(284.64 179.371)"/><path style="fill:#395cb3;fill-opacity:1;fill-rule:nonzero;stroke:none" d="M0 0c-4.619 0-4.835 4.777-4.837 4.826a3.053 3.053 0 0 1-3.048 3.057 3.05 3.05 0 0 1-3.046-3.047A3.05 3.05 0 0 1-7.885 1.79c4.269 0 4.829-4.756 4.835-4.804.002-1.713 1.369-3.08 3.05-3.08a3.05 3.05 0 0 1 3.046 3.048A3.05 3.05 0 0 1 0 0" transform="translate(316.173 163.605)"/><path style="fill:#395cb3;fill-opacity:1;fill-rule:nonzero;stroke:none" d="M0 0a1.932 1.932 0 0 1-1.93-1.93c0-1.064.866-1.929 1.93-1.929s1.93.865 1.93 1.929S1.064 0 0 0" transform="translate(237.34 154.605)"/><path style="fill:#395cb3;fill-opacity:1;fill-rule:nonzero;stroke:none" d="M0 0a1.932 1.932 0 0 1-1.93-1.93c0-1.064.866-1.929 1.93-1.929 1.063 0 1.93.865 1.93 1.929C1.93-.865 1.063 0 0 0" transform="translate(229.458 186.137)"/><path style="fill:#395cb3;fill-opacity:1;fill-rule:nonzero;stroke:none" d="M0 0a1.932 1.932 0 0 1-1.93-1.93c0-1.064.866-1.93 1.93-1.93 1.063 0 1.93.866 1.93 1.93S1.063 0 0 0" transform="translate(229.458 178.254)"/><path style="fill:#395cb3;fill-opacity:1;fill-rule:nonzero;stroke:none" d="M0 0a1.932 1.932 0 0 1-1.93-1.93c0-1.064.866-1.929 1.93-1.929 1.063 0 1.93.865 1.93 1.929S1.063 0 0 0" transform="translate(229.458 170.37)"/><path style="fill:#395cb3;fill-opacity:1;fill-rule:nonzero;stroke:none" d="M0 0c1.064 0 1.93.866 1.93 1.93A1.932 1.932 0 0 1 0 3.859 1.932 1.932 0 0 1-1.93 1.93C-1.93.866-1.063 0 0 0" transform="translate(324.054 182.278)"/><path style="fill:#395cb3;fill-opacity:1;fill-rule:nonzero;stroke:none" d="M0 0a.813.813 0 1 1-.001 1.625A.813.813 0 0 1 0 0" transform="translate(324.054 191.278)"/><path style="fill:#395cb3;fill-opacity:1;fill-rule:nonzero;stroke:none" d="M0 0a.813.813 0 0 1 0 1.625A.813.813 0 0 1 0 0" transform="translate(229.458 191.278)"/><path style="fill:#395cb3;fill-opacity:1;fill-rule:nonzero;stroke:none" d="M0 0a1.933 1.933 0 0 1-1.93-1.93c0-1.064.867-1.93 1.93-1.93 1.064 0 1.93.866 1.93 1.93S1.064 0 0 0" transform="translate(324.054 178.254)"/><path style="fill:#395cb3;fill-opacity:1;fill-rule:nonzero;stroke:none" d="M0 0a1.933 1.933 0 0 1-1.93-1.93c0-1.064.867-1.929 1.93-1.929 1.064 0 1.93.865 1.93 1.929S1.064 0 0 0" transform="translate(324.054 170.37)"/><path style="fill:#395cb3;fill-opacity:1;fill-rule:nonzero;stroke:none" d="M0 0a1.933 1.933 0 0 1-1.93-1.93c0-1.064.867-1.93 1.93-1.93 1.064 0 1.93.866 1.93 1.93S1.064 0 0 0" transform="translate(324.054 162.488)"/><path style="fill:#395cb3;fill-opacity:1;fill-rule:nonzero;stroke:none" d="M0 0a1.932 1.932 0 0 1-1.93-1.93c0-1.064.866-1.93 1.93-1.93 1.063 0 1.93.866 1.93 1.93S1.063 0 0 0" transform="translate(229.458 162.488)"/><path style="fill:#395cb3;fill-opacity:1;fill-rule:nonzero;stroke:none" d="M0 0a.813.813 0 1 1 .001-1.625A.813.813 0 0 1 0 0" transform="translate(253.107 137.72)"/><path style="fill:#395cb3;fill-opacity:1;fill-rule:nonzero;stroke:none" d="M0 0a.813.813 0 1 1 .001-1.625A.813.813 0 0 1 0 0" transform="translate(300.406 137.72)"/><path style="fill:#395cb3;fill-opacity:1;fill-rule:nonzero;stroke:none" d="M0 0a3.05 3.05 0 0 1-3.047-3.047A3.05 3.05 0 0 1 0-6.094a3.05 3.05 0 0 1 3.048 3.047A3.05 3.05 0 0 1 0 0" transform="translate(245.223 155.722)"/><path style="fill:#395cb3;fill-opacity:1;fill-rule:nonzero;stroke:none" d="M0 0a3.05 3.05 0 0 1-3.046-3.047A3.05 3.05 0 0 1 0-6.094a3.05 3.05 0 0 1 3.048 3.047A3.05 3.05 0 0 1 0 0" transform="translate(308.288 155.722)"/><path style="fill:#395cb3;fill-opacity:1;fill-rule:nonzero;stroke:none" d="M0 0a1.932 1.932 0 0 1-1.93-1.93c0-1.064.866-1.929 1.93-1.929 1.062 0 1.929.865 1.929 1.929S1.062 0 0 0" transform="translate(316.173 154.605)"/><path style="fill:#395cb3;fill-opacity:1;fill-rule:nonzero;stroke:none" d="M0 0c-4.618 0-4.834 4.777-4.836 4.826 0 4.278 4.755 4.84 4.804 4.845 1.713.001 3.079 1.369 3.079 3.049A3.05 3.05 0 0 1 0 15.766a3.05 3.05 0 0 1-3.047-3.046c0-4.619-4.777-4.835-4.826-4.837a3.053 3.053 0 0 1-3.057-3.047A3.05 3.05 0 0 1-7.883 1.79c4.268 0 4.829-4.756 4.834-4.804a3.37 3.37 0 0 1 .06-.604l.009-.046-.004-.045C-3.32-6.738-5.899-7.573-7.125-7.8l.114-.114-.853.028c-4.638.003-4.854 4.781-4.855 4.829A3.053 3.053 0 0 1-15.767 0a3.05 3.05 0 0 1-3.046-3.046 3.05 3.05 0 0 1 3.046-3.048c4.268 0 4.829-4.755 4.835-4.803.002-1.713 1.369-3.08 3.049-3.08a3.05 3.05 0 0 1 3.047 3.047.948.948 0 0 0-.012.104l-.031.778.192-.191c.371 2.809 2.979 3.747 4.169 4.032l-.092.093.697.03a3.028 3.028 0 0 1 2.96 3.038A3.05 3.05 0 0 1 0 0" transform="translate(292.522 147.839)"/><path style="fill:#395cb3;fill-opacity:1;fill-rule:nonzero;stroke:none" d="M0 0c-4.619 0-4.835 4.777-4.837 4.826 0 4.278 4.756 4.84 4.804 4.845 1.713.001 3.079 1.369 3.079 3.049A3.05 3.05 0 0 1 0 15.766c-4.619 0-4.835 4.777-4.837 4.826a3.052 3.052 0 0 1-3.047 3.057 3.051 3.051 0 0 1-3.047-3.046c0-4.619-4.777-4.835-4.826-4.837-4.629 0-4.845 4.777-4.846 4.826a3.053 3.053 0 0 1-3.047 3.057 3.05 3.05 0 0 1-3.047-3.046c0-4.619-4.778-4.835-4.825-4.837a3.052 3.052 0 0 1-3.057-3.046 3.05 3.05 0 0 1 3.046-3.048 3.051 3.051 0 0 1 3.047 3.048c0 4.267 4.755 4.829 4.803 4.834h.003c4.297 0 4.859-4.754 4.865-4.802.002-4.651-4.776-4.867-4.825-4.869a3.053 3.053 0 0 1-3.057-3.047c0-4.618-4.778-4.834-4.825-4.836-4.629 0-4.846 4.777-4.847 4.826a3.053 3.053 0 0 1-3.047 3.057 3.05 3.05 0 0 1-3.047-3.047C-42.463.218-47.24.002-47.289 0a3.052 3.052 0 0 1-3.057-3.046 3.05 3.05 0 0 1 3.047-3.048 3.05 3.05 0 0 1 3.047 3.048c0 4.267 4.755 4.829 4.804 4.834h.002c4.298 0 4.859-4.754 4.865-4.802.002-1.713 1.368-3.08 3.048-3.08 4.268 0 4.829-4.755 4.835-4.803.001-1.713 1.368-3.08 3.048-3.08a3.05 3.05 0 0 1 3.047 3.047 3.05 3.05 0 0 1-3.047 3.047c-4.618 0-4.834 4.778-4.836 4.826 0 4.278 4.755 4.84 4.803 4.845h.003c4.297 0 4.859-4.754 4.865-4.802.002-1.713 1.368-3.08 3.048-3.08a3.05 3.05 0 0 1 3.047 3.048A3.05 3.05 0 0 1-15.767 0c-4.619 0-4.835 4.777-4.836 4.826 0 4.278 4.755 4.84 4.804 4.845 1.713.001 3.079 1.369 3.079 3.049 0 4.267 4.755 4.829 4.804 4.834h.002c4.298 0 4.859-4.754 4.865-4.802.002-4.651-4.776-4.867-4.824-4.869a3.054 3.054 0 0 1-3.058-3.047A3.05 3.05 0 0 1-7.884 1.79c4.268 0 4.829-4.756 4.835-4.804.002-1.713 1.368-3.08 3.049-3.08a3.05 3.05 0 0 1 3.046 3.048A3.05 3.05 0 0 1 0 0" transform="translate(300.406 147.839)"/><path style="fill:#395cb3;fill-opacity:1;fill-rule:nonzero;stroke:none" d="M0 0a1.933 1.933 0 0 1-1.93-1.93c0-1.064.867-1.929 1.93-1.929 1.064 0 1.93.865 1.93 1.929S1.064 0 0 0" transform="translate(260.99 138.839)"/><path style="fill:#395cb3;fill-opacity:1;fill-rule:nonzero;stroke:none" d="M0 0c-4.618 0-4.835 4.777-4.836 4.826a3.053 3.053 0 0 1-3.047 3.057 3.05 3.05 0 0 1-3.047-3.047 3.05 3.05 0 0 1 3.047-3.047c4.268 0 4.829-4.755 4.835-4.804C-3.046-4.727-1.68-6.094 0-6.094a3.05 3.05 0 0 1 3.047 3.047A3.05 3.05 0 0 1 0 0" transform="translate(268.873 139.956)"/><path style="fill:#395cb3;fill-opacity:1;fill-rule:nonzero;stroke:none" d="M0 0a1.933 1.933 0 0 1-1.93-1.93c0-1.064.867-1.929 1.93-1.929 1.064 0 1.93.865 1.93 1.929S1.064 0 0 0" transform="translate(292.522 138.839)"/><path style="fill:#395cb3;fill-opacity:1;fill-rule:nonzero;stroke:none" d="M0 0c4.297 0 4.858-4.754 4.864-4.802l.002-.032a3.05 3.05 0 0 1 3.047-3.048 3.05 3.05 0 0 1 3.047 3.048 3.05 3.05 0 0 1-3.047 3.046c-4.619 0-4.835 4.777-4.836 4.826A3.053 3.053 0 0 1 .029 6.095a3.051 3.051 0 0 1-3.047-3.047c0-4.618-4.777-4.834-4.825-4.836A3.052 3.052 0 0 1-10.9-4.834a3.05 3.05 0 0 1 3.046-3.048 3.05 3.05 0 0 1 3.047 3.048C-4.807-.567-.052-.005-.003 0z" transform="translate(245.194 165.393)"/></g></svg>