<svg xmlns="http://www.w3.org/2000/svg" width="135.386" height="149.475" viewBox="0 0 35.821 39.549"><defs><clipPath id="a" clipPathUnits="userSpaceOnUse"><path d="M0 368.504h368.504V0H0Z"/></clipPath></defs><g clip-path="url(#a)" transform="matrix(.35278 0 0 -.35278 -79.18 85.642)"><path style="fill:#395cb3;fill-opacity:1;fill-rule:nonzero;stroke:none" d="M0 0a4.702 4.702 0 0 1 4.697 4.697A4.702 4.702 0 0 1 0 9.394a4.702 4.702 0 0 1-4.696-4.697A4.702 4.702 0 0 1 0 0" transform="translate(275.214 225.869)"/><path style="fill:#395cb3;fill-opacity:1;fill-rule:nonzero;stroke:none" d="M0 0a4.702 4.702 0 0 1 4.697 4.697A4.702 4.702 0 0 1 0 9.394a4.702 4.702 0 0 1-4.696-4.697A4.702 4.702 0 0 1 0 0" transform="translate(275.214 213.968)"/><path style="fill:#395cb3;fill-opacity:1;fill-rule:nonzero;stroke:none" d="M0 0a4.702 4.702 0 0 1 4.696-4.697A4.702 4.702 0 0 1 9.394 0c0 6.356 7.093 7.194 7.165 7.202 2.629.002 4.736 2.11 4.736 4.699a4.702 4.702 0 0 1-4.697 4.697 4.703 4.703 0 0 1-4.697-4.697c0-6.88-7.12-7.202-7.192-7.204A4.705 4.705 0 0 1 0 0" transform="translate(246.715 194.862)"/><path style="fill:#395cb3;fill-opacity:1;fill-rule:nonzero;stroke:none" d="M0 0c-6.88 0-7.202 7.12-7.205 7.192a4.705 4.705 0 0 1-4.696 4.709c-6.88 0-7.202 7.12-7.204 7.192a4.705 4.705 0 0 1-4.697 4.709 4.702 4.702 0 0 1-4.697-4.697c0-6.879-7.12-7.202-7.193-7.204-6.892 0-7.213 7.12-7.216 7.192a4.705 4.705 0 0 1-4.697 4.709 4.703 4.703 0 0 1-4.697-4.697 4.703 4.703 0 0 1 4.697-4.696c6.357 0 7.195-7.094 7.203-7.166C-40.4.324-47.521.002-47.593 0a4.705 4.705 0 0 1-4.709-4.697c0-6.88-7.12-7.202-7.192-7.204-6.892-.001-7.214 7.12-7.217 7.192 0 6.369 7.094 7.207 7.165 7.214 2.63.002 4.736 2.11 4.736 4.699a4.702 4.702 0 0 1-4.697 4.697 4.702 4.702 0 0 1-4.696-4.697c0-6.88-7.12-7.202-7.193-7.204a4.705 4.705 0 0 1-4.709-4.697 4.702 4.702 0 0 1 4.698-4.697c6.355 0 7.194-7.094 7.202-7.166.002-2.628 2.109-4.735 4.698-4.735 6.358 0 7.195-7.094 7.203-7.165.002-6.919-7.118-7.242-7.19-7.244a4.705 4.705 0 0 1-4.709-4.697 4.702 4.702 0 0 1 4.696-4.697 4.702 4.702 0 0 1 4.697 4.697c0 6.357 7.094 7.195 7.165 7.203 2.629.002 4.737 2.109 4.737 4.698a4.703 4.703 0 0 1-4.697 4.697c-6.879 0-7.202 7.12-7.205 7.192 0 6.369 7.094 7.207 7.165 7.215 2.629.002 4.737 2.109 4.737 4.699 0 6.357 7.094 7.195 7.165 7.202h.003c6.393 0 7.23-7.091 7.238-7.163.003-2.629 2.109-4.736 4.7-4.736a4.703 4.703 0 0 1 4.697 4.697A4.703 4.703 0 0 1-23.802 0c-6.881 0-7.202 7.12-7.205 7.192 0 6.369 7.094 7.207 7.166 7.215h.002c6.395 0 7.232-7.093 7.239-7.164.002-2.628 2.11-4.736 4.699-4.736 6.357 0 7.195-7.093 7.203-7.165.002-6.919-7.118-7.241-7.191-7.243a4.707 4.707 0 0 1-4.709-4.698 4.703 4.703 0 0 1 4.697-4.696 4.702 4.702 0 0 1 4.696 4.696c0 6.357 7.095 7.195 7.166 7.203 2.629.002 4.736 2.109 4.736 4.699A4.702 4.702 0 0 1 0 0" transform="translate(310.918 199.559)"/><path style="fill:#395cb3;fill-opacity:1;fill-rule:nonzero;stroke:none" d="M0 0h-.012c-6.881 0-7.202 7.121-7.205 7.192a4.705 4.705 0 0 1-4.697 4.709c-6.88 0-7.201 7.12-7.204 7.192 0 6.369 7.094 7.207 7.165 7.215h.003c6.393 0 7.23-7.092 7.238-7.163.003-2.629 2.109-4.736 4.7-4.736 6.357 0 7.195-7.094 7.202-7.165C7.192.325.072.002 0 0m23.79 23.802a4.702 4.702 0 0 1-4.696-4.697c0-6.879-7.12-7.201-7.193-7.203-6.892-.001-7.214 7.119-7.216 7.191 0 6.369 7.093 7.207 7.165 7.215 2.629.003 4.735 2.109 4.735 4.699a4.701 4.701 0 0 1-4.696 4.697c-6.88 0-7.202 7.12-7.204 7.192a4.705 4.705 0 0 1-4.697 4.709 4.702 4.702 0 0 1-4.697-4.697 4.702 4.702 0 0 1 4.697-4.697c6.357 0 7.195-7.093 7.202-7.165.002-6.919-7.118-7.241-7.19-7.243-6.893-.001-7.214 7.12-7.217 7.192a4.705 4.705 0 0 1-4.697 4.709 4.702 4.702 0 0 1-4.696-4.697c0-6.88-7.12-7.202-7.193-7.204a4.707 4.707 0 0 1-4.709-4.698 4.703 4.703 0 0 1 4.697-4.696c6.357 0 7.195-7.094 7.203-7.165C-16.61.325-23.73.002-23.803 0a4.705 4.705 0 0 1-4.709-4.697c0-6.88-7.12-7.201-7.192-7.204-6.892 0-7.214 7.12-7.217 7.192 0 6.369 7.094 7.207 7.165 7.215 2.63.002 4.736 2.109 4.736 4.699a4.701 4.701 0 0 1-4.697 4.696c-6.879 0-7.201 7.12-7.204 7.192a4.704 4.704 0 0 1-4.696 4.709 4.702 4.702 0 0 1-4.697-4.697 4.701 4.701 0 0 1 4.697-4.696c6.355 0 7.194-7.094 7.202-7.165C-40.413.325-47.533.002-47.605 0a4.704 4.704 0 0 1-4.709-4.697 4.702 4.702 0 0 1 4.697-4.697c6.355 0 7.194-7.093 7.202-7.165.002-2.629 2.109-4.736 4.698-4.736a4.702 4.702 0 0 1 4.697 4.697c0 6.356 7.094 7.194 7.166 7.202 2.628.002 4.736 2.109 4.736 4.699 0 6.357 7.094 7.195 7.165 7.203h.003c6.393 0 7.23-7.092 7.238-7.164.003-2.629 2.109-4.736 4.7-4.736a4.703 4.703 0 0 1 4.697 4.697c0 6.357 7.093 7.195 7.165 7.203h.003c6.393 0 7.231-7.092 7.239-7.164.002-2.629 2.109-4.736 4.698-4.736a4.702 4.702 0 0 1 4.697 4.697A4.702 4.702 0 0 1 23.79 0c-6.88 0-7.202 7.121-7.205 7.192 0 6.37 7.095 7.207 7.166 7.215 2.629.002 4.736 2.109 4.736 4.698a4.702 4.702 0 0 1-4.697 4.697" transform="translate(287.128 163.855)"/><path style="fill:#395cb3;fill-opacity:1;fill-rule:nonzero;stroke:none" d="M0 0a4.702 4.702 0 0 1-4.696 4.697A4.703 4.703 0 0 1-9.394 0a4.702 4.702 0 0 1 4.698-4.697A4.701 4.701 0 0 1 0 0" transform="translate(244.208 171.06)"/><path style="fill:#395cb3;fill-opacity:1;fill-rule:nonzero;stroke:none" d="M0 0c-6.881 0-7.202 7.12-7.205 7.192a4.705 4.705 0 0 1-4.697 4.709 4.703 4.703 0 0 1-4.697-4.697 4.704 4.704 0 0 1 4.697-4.697c6.356 0 7.194-7.093 7.202-7.165.003-2.629 2.109-4.736 4.7-4.736a4.702 4.702 0 0 1 4.696 4.697A4.702 4.702 0 0 1 0 0" transform="translate(287.117 175.756)"/><path style="fill:#395cb3;fill-opacity:1;fill-rule:nonzero;stroke:none" d="M0 0a4.702 4.702 0 0 1 4.696-4.697A4.703 4.703 0 0 1 9.394 0a4.704 4.704 0 0 1-4.698 4.697A4.703 4.703 0 0 1 0 0" transform="translate(306.222 171.06)"/><path style="fill:#395cb3;fill-opacity:1;fill-rule:nonzero;stroke:none" d="M0 0a4.702 4.702 0 0 1-4.696-4.697c0-6.88-7.12-7.202-7.193-7.204-6.892 0-7.214 7.12-7.216 7.192A4.706 4.706 0 0 1-23.803 0a4.702 4.702 0 0 1-4.696-4.697c0-6.88-7.12-7.202-7.192-7.204a4.705 4.705 0 0 1-4.709-4.697 4.702 4.702 0 0 1 4.696-4.697 4.702 4.702 0 0 1 4.697 4.697c0 6.357 7.094 7.194 7.165 7.202h.003c6.394 0 7.231-7.092 7.238-7.163.003-6.919-7.117-7.241-7.19-7.243a4.706 4.706 0 0 1-4.708-4.698 4.702 4.702 0 0 1 4.696-4.696 4.703 4.703 0 0 1 4.698 4.696c0 6.357 7.093 7.195 7.166 7.203 2.627.002 4.735 2.109 4.735 4.699 0 6.357 7.094 7.194 7.165 7.202 2.629.002 4.735 2.109 4.735 4.699A4.701 4.701 0 0 1 0 0" transform="translate(299.017 163.855)"/><path style="fill:#395cb3;fill-opacity:1;fill-rule:nonzero;stroke:none" d="M0 0a4.702 4.702 0 0 1-4.697 4.697A4.703 4.703 0 0 1-9.394 0a4.703 4.703 0 0 1 4.697-4.697A4.702 4.702 0 0 1 0 0" transform="translate(279.912 147.256)"/><path style="fill:#395cb3;fill-opacity:1;fill-rule:nonzero;stroke:none" d="M0 0a4.702 4.702 0 0 1-4.696-4.697A4.702 4.702 0 0 1 0-9.394a4.701 4.701 0 0 1 4.696 4.697A4.701 4.701 0 0 1 0 0" transform="translate(299.017 151.953)"/><path style="fill:#395cb3;fill-opacity:1;fill-rule:nonzero;stroke:none" d="M0 0a3.015 3.015 0 0 1-3.011-3.01c0-1.66 1.351-3.01 3.011-3.01 1.659 0 3.01 1.35 3.01 3.01A3.014 3.014 0 0 1 0 0" transform="translate(287.117 138.365)"/><path style="fill:#395cb3;fill-opacity:1;fill-rule:nonzero;stroke:none" d="M0 0a3.014 3.014 0 0 1-3.01-3.01c0-1.66 1.351-3.01 3.01-3.01 1.66 0 3.011 1.35 3.011 3.01A3.015 3.015 0 0 1 0 0" transform="translate(263.313 138.365)"/><path style="fill:#395cb3;fill-opacity:1;fill-rule:nonzero;stroke:none" d="M0 0a3.014 3.014 0 0 1-3.01-3.01A3.015 3.015 0 0 1 0-6.021 3.015 3.015 0 0 1 3.011-3.01 3.015 3.015 0 0 1 0 0" transform="translate(310.918 150.267)"/><path style="fill:#395cb3;fill-opacity:1;fill-rule:nonzero;stroke:none" d="M0 0a3.014 3.014 0 0 1-3.01-3.01c0-1.66 1.35-3.011 3.01-3.011A3.015 3.015 0 0 1 3.01-3.01 3.014 3.014 0 0 1 0 0" transform="translate(239.511 150.267)"/><path style="fill:#395cb3;fill-opacity:1;fill-rule:nonzero;stroke:none" d="M0 0c1.659 0 3.01 1.35 3.01 3.01A3.014 3.014 0 0 1 0 6.02a3.014 3.014 0 0 1-3.01-3.01C-3.01 1.35-1.66 0 0 0" transform="translate(239.511 203.753)"/><path style="fill:#395cb3;fill-opacity:1;fill-rule:nonzero;stroke:none" d="M0 0a3.015 3.015 0 0 1 3.011 3.01A3.015 3.015 0 0 1 0 6.021 3.015 3.015 0 0 1-3.01 3.01 3.014 3.014 0 0 1 0 0" transform="translate(251.412 215.654)"/><path style="fill:#395cb3;fill-opacity:1;fill-rule:nonzero;stroke:none" d="M0 0a3.015 3.015 0 0 1 3.011 3.01A3.015 3.015 0 0 1 0 6.021 3.015 3.015 0 0 1-3.01 3.01 3.014 3.014 0 0 1 0 0" transform="translate(299.017 215.654)"/><path style="fill:#395cb3;fill-opacity:1;fill-rule:nonzero;stroke:none" d="M0 0c1.66 0 3.011 1.35 3.011 3.01A3.015 3.015 0 0 1 0 6.02a3.014 3.014 0 0 1-3.01-3.01C-3.01 1.35-1.659 0 0 0" transform="translate(310.918 203.753)"/><path style="fill:#395cb3;fill-opacity:1;fill-rule:nonzero;stroke:none" d="M0 0c.73 0 1.324.593 1.324 1.323S.73 2.646 0 2.646A1.324 1.324 0 0 1 0 0" transform="translate(275.214 240.119)"/><path style="fill:#395cb3;fill-opacity:1;fill-rule:nonzero;stroke:none" d="M0 0a1.324 1.324 0 1 1-1.323 1.323C-1.323.594-.729 0 0 0" transform="translate(287.117 229.242)"/><path style="fill:#395cb3;fill-opacity:1;fill-rule:nonzero;stroke:none" d="M0 0c.73 0 1.324.594 1.324 1.323a1.325 1.325 0 0 1-2.647 0C-1.323.594-.729 0 0 0" transform="translate(263.313 229.242)"/><path style="fill:#395cb3;fill-opacity:1;fill-rule:nonzero;stroke:none" d="M0 0a1.324 1.324 0 1 1 1.324-1.323C1.324-.594.73 0 0 0" transform="translate(251.412 138.365)"/><path style="fill:#395cb3;fill-opacity:1;fill-rule:nonzero;stroke:none" d="M0 0a3.015 3.015 0 0 1-3.011-3.01A3.015 3.015 0 0 1 0-6.021 3.015 3.015 0 0 1 3.011-3.01 3.015 3.015 0 0 1 0 0" transform="translate(227.456 174.07)"/><path style="fill:#395cb3;fill-opacity:1;fill-rule:nonzero;stroke:none" d="M0 0a3.015 3.015 0 0 1-3.011-3.01c0-1.66 1.352-3.01 3.011-3.01 1.66 0 3.011 1.35 3.011 3.01A3.015 3.015 0 0 1 0 0" transform="translate(227.456 185.97)"/><path style="fill:#395cb3;fill-opacity:1;fill-rule:nonzero;stroke:none" d="M0 0a1.325 1.325 0 0 1-1.323-1.323 1.325 1.325 0 0 1 2.647 0C1.324-.593.73 0 0 0" transform="translate(229.142 160.481)"/><path style="fill:#395cb3;fill-opacity:1;fill-rule:nonzero;stroke:none" d="M0 0a1.325 1.325 0 0 1-1.323-1.323 1.325 1.325 0 0 1 2.647 0C1.324-.593.73 0 0 0" transform="translate(229.142 196.185)"/><path style="fill:#395cb3;fill-opacity:1;fill-rule:nonzero;stroke:none" d="M0 0a3.014 3.014 0 0 1-3.01-3.01c0-1.66 1.35-3.011 3.01-3.011A3.015 3.015 0 0 1 3.01-3.01 3.014 3.014 0 0 1 0 0" transform="translate(322.974 174.07)"/><path style="fill:#395cb3;fill-opacity:1;fill-rule:nonzero;stroke:none" d="M0 0c1.659 0 3.01 1.35 3.01 3.01A3.014 3.014 0 0 1 0 6.02a3.014 3.014 0 0 1-3.01-3.01C-3.01 1.35-1.66 0 0 0" transform="translate(322.974 179.95)"/><path style="fill:#395cb3;fill-opacity:1;fill-rule:nonzero;stroke:none" d="M0 0a1.325 1.325 0 0 1-1.323-1.323A1.324 1.324 0 1 1 0 0" transform="translate(321.288 160.481)"/><path style="fill:#395cb3;fill-opacity:1;fill-rule:nonzero;stroke:none" d="M0 0a1.323 1.323 0 1 1-1.323 1.324C-1.323.594-.729 0 0 0" transform="translate(321.288 193.538)"/><path style="fill:#395cb3;fill-opacity:1;fill-rule:nonzero;stroke:none" d="M0 0a1.325 1.325 0 0 1-1.323-1.323c0-.73.594-1.323 1.323-1.323s1.323.593 1.323 1.323C1.323-.594.729 0 0 0" transform="translate(299.017 138.365)"/></g></svg>